<svg width="81" height="25" viewBox="0 0 81 25" fill="none" xmlns="http://www.w3.org/2000/svg">
<path d="M14.2188 16.4531H18.8906C18.7969 17.9844 18.375 19.3438 17.625 20.5312C16.8854 21.7188 15.849 22.6458 14.5156 23.3125C13.1927 23.9792 11.599 24.3125 9.73438 24.3125C8.27604 24.3125 6.96875 24.0625 5.8125 23.5625C4.65625 23.0521 3.66667 22.3229 2.84375 21.375C2.03125 20.4271 1.41146 19.2812 0.984375 17.9375C0.557292 16.5938 0.34375 15.0885 0.34375 13.4219V11.8438C0.34375 10.1771 0.5625 8.67188 1 7.32812C1.44792 5.97396 2.08333 4.82292 2.90625 3.875C3.73958 2.92708 4.73438 2.19792 5.89062 1.6875C7.04688 1.17708 8.33854 0.921875 9.76562 0.921875C11.6615 0.921875 13.2604 1.26562 14.5625 1.95312C15.875 2.64062 16.8906 3.58854 17.6094 4.79688C18.3385 6.00521 18.776 7.38021 18.9219 8.92188H14.2344C14.1823 8.00521 14 7.22917 13.6875 6.59375C13.375 5.94792 12.901 5.46354 12.2656 5.14062C11.6406 4.80729 10.8073 4.64062 9.76562 4.64062C8.98438 4.64062 8.30208 4.78646 7.71875 5.07812C7.13542 5.36979 6.64583 5.8125 6.25 6.40625C5.85417 7 5.55729 7.75 5.35938 8.65625C5.17188 9.55208 5.07812 10.6042 5.07812 11.8125V13.4219C5.07812 14.599 5.16667 15.6354 5.34375 16.5312C5.52083 17.4167 5.79167 18.1667 6.15625 18.7812C6.53125 19.3854 7.01042 19.8438 7.59375 20.1562C8.1875 20.4583 8.90104 20.6094 9.73438 20.6094C10.7135 20.6094 11.5208 20.4531 12.1562 20.1406C12.7917 19.8281 13.276 19.3646 13.6094 18.75C13.9531 18.1354 14.1562 17.3698 14.2188 16.4531ZM20.9688 15.7188V15.3906C20.9688 14.151 21.1458 13.0104 21.5 11.9688C21.8542 10.9167 22.3698 10.0052 23.0469 9.23438C23.724 8.46354 24.5573 7.86458 25.5469 7.4375C26.5365 7 27.6719 6.78125 28.9531 6.78125C30.2344 6.78125 31.375 7 32.375 7.4375C33.375 7.86458 34.2135 8.46354 34.8906 9.23438C35.5781 10.0052 36.099 10.9167 36.4531 11.9688C36.8073 13.0104 36.9844 14.151 36.9844 15.3906V15.7188C36.9844 16.9479 36.8073 18.0885 36.4531 19.1406C36.099 20.1823 35.5781 21.0938 34.8906 21.875C34.2135 22.6458 33.3802 23.2448 32.3906 23.6719C31.401 24.099 30.2656 24.3125 28.9844 24.3125C27.7031 24.3125 26.5625 24.099 25.5625 23.6719C24.5729 23.2448 23.7344 22.6458 23.0469 21.875C22.3698 21.0938 21.8542 20.1823 21.5 19.1406C21.1458 18.0885 20.9688 16.9479 20.9688 15.7188ZM25.4688 15.3906V15.7188C25.4688 16.4271 25.5312 17.0885 25.6562 17.7031C25.7812 18.3177 25.9792 18.8594 26.25 19.3281C26.5312 19.7865 26.8958 20.1458 27.3438 20.4062C27.7917 20.6667 28.3385 20.7969 28.9844 20.7969C29.6094 20.7969 30.1458 20.6667 30.5938 20.4062C31.0417 20.1458 31.401 19.7865 31.6719 19.3281C31.9427 18.8594 32.1406 18.3177 32.2656 17.7031C32.401 17.0885 32.4688 16.4271 32.4688 15.7188V15.3906C32.4688 14.7031 32.401 14.0573 32.2656 13.4531C32.1406 12.8385 31.9375 12.2969 31.6562 11.8281C31.3854 11.349 31.026 10.974 30.5781 10.7031C30.1302 10.4323 29.5885 10.2969 28.9531 10.2969C28.3177 10.2969 27.776 10.4323 27.3281 10.7031C26.8906 10.974 26.5312 11.349 26.25 11.8281C25.9792 12.2969 25.7812 12.8385 25.6562 13.4531C25.5312 14.0573 25.4688 14.7031 25.4688 15.3906ZM44.5 7.09375V24H39.9844V7.09375H44.5ZM39.7031 2.6875C39.7031 2.03125 39.9323 1.48958 40.3906 1.0625C40.849 0.635417 41.4635 0.421875 42.2344 0.421875C42.9948 0.421875 43.6042 0.635417 44.0625 1.0625C44.5312 1.48958 44.7656 2.03125 44.7656 2.6875C44.7656 3.34375 44.5312 3.88542 44.0625 4.3125C43.6042 4.73958 42.9948 4.95312 42.2344 4.95312C41.4635 4.95312 40.849 4.73958 40.3906 4.3125C39.9323 3.88542 39.7031 3.34375 39.7031 2.6875ZM52.625 10.7031V24H48.125V7.09375H52.3438L52.625 10.7031ZM51.9688 14.9531H50.75C50.75 13.7031 50.9115 12.5781 51.2344 11.5781C51.5573 10.5677 52.0104 9.70833 52.5938 9C53.1771 8.28125 53.8698 7.73438 54.6719 7.35938C55.4844 6.97396 56.3906 6.78125 57.3906 6.78125C58.1823 6.78125 58.9062 6.89583 59.5625 7.125C60.2188 7.35417 60.7812 7.71875 61.25 8.21875C61.7292 8.71875 62.0938 9.38021 62.3438 10.2031C62.6042 11.026 62.7344 12.0312 62.7344 13.2188V24H58.2031V13.2031C58.2031 12.4531 58.099 11.8698 57.8906 11.4531C57.6823 11.0365 57.375 10.7448 56.9688 10.5781C56.5729 10.401 56.0833 10.3125 55.5 10.3125C54.8958 10.3125 54.3698 10.4323 53.9219 10.6719C53.4844 10.9115 53.1198 11.2448 52.8281 11.6719C52.5469 12.0885 52.3333 12.5781 52.1875 13.1406C52.0417 13.7031 51.9688 14.3073 51.9688 14.9531ZM69.7812 7.09375L72.5781 12.2344L75.4531 7.09375H80.25L75.4688 15.3594L80.4688 24H75.6562L72.6094 18.5625L69.5625 24H64.75L69.75 15.3594L64.9688 7.09375H69.7812Z" fill="url(#paint0_linear_301_3262)"/>
<defs>
<linearGradient id="paint0_linear_301_3262" x1="1.73333" y1="32" x2="60.2267" y2="32" gradientUnits="userSpaceOnUse">
<stop stop-color="#BCE70C"/>
<stop offset="1" stop-color="white"/>
</linearGradient>
</defs>
</svg>
